<svg xmlns="http://www.w3.org/2000/svg" version="1.1" xmlns:xlink="http://www.w3.org/1999/xlink" xmlns:svgjs="http://svgjs.dev/svgjs" width="1500" height="1500" viewBox="0 0 1500 1500"><rect width="1500" height="1500" fill="#000000"></rect><g transform="matrix(0.6666666666666666,0,0,0.6666666666666666,249.39393939393938,601.1578075493156)"><svg viewBox="0 0 396 118" data-background-color="#ffffff" preserveAspectRatio="xMidYMid meet" height="446" width="1500" xmlns="http://www.w3.org/2000/svg" xmlns:xlink="http://www.w3.org/1999/xlink"><g id="tight-bounds" transform="matrix(1,0,0,1,0.2400000000000091,0.06965933580974593)"><svg viewBox="0 0 395.52 117.86068132838051" height="117.86068132838051" width="395.52"><g><svg viewBox="0 0 395.52 117.86068132838051" height="117.86068132838051" width="395.52"><g><svg viewBox="0 0 395.52 117.86068132838051" height="117.86068132838051" width="395.52"><g id="textblocktransform"><svg viewBox="0 0 395.52 117.86068132838051" height="117.86068132838051" width="395.52" id="textblock"><g><svg viewBox="0 0 395.52 83.77542819786446" height="83.77542819786446" width="395.52"><g transform="matrix(1,0,0,1,0,0)"><svg width="395.52" viewBox="2.53 -33.33 159.33 33.75" height="83.77542819786446" data-palette-color="#1ebbd7"><path d="M11.11 0.42L11.11 0.42Q8.33 0.42 6.09-0.69 3.85-1.81 2.53-3.4L2.53-3.4 3.68-8.19Q4.65-6.25 6.6-4.69 8.54-3.13 11.25-3.13L11.25-3.13Q13.72-3.13 15.33-4.69 16.94-6.25 16.94-8.54L16.94-8.54Q16.94-10.21 16.15-11.28 15.35-12.36 14.34-12.99 13.33-13.61 12.74-13.89L12.74-13.89 8.92-15.83Q8.02-16.32 6.68-17.19 5.35-18.06 4.34-19.58 3.33-21.11 3.33-23.54L3.33-23.54Q3.33-25.9 4.43-27.74 5.52-29.58 7.48-30.63 9.44-31.67 11.98-31.67L11.98-31.67Q14.48-31.67 16.39-30.78 18.3-29.9 19.38-28.96L19.38-28.96 18.23-24.17Q17.36-25.63 15.66-26.91 13.96-28.19 11.81-28.19L11.81-28.19Q9.72-28.19 8.47-26.96 7.22-25.73 7.22-23.92L7.22-23.92Q7.22-22.53 7.86-21.63 8.51-20.73 9.32-20.21 10.14-19.69 10.66-19.41L10.66-19.41 14.55-17.47Q15.24-17.12 16.3-16.49 17.36-15.87 18.4-14.84 19.44-13.82 20.14-12.34 20.83-10.87 20.83-8.78L20.83-8.78Q20.83-6.11 19.57-4.03 18.3-1.94 16.11-0.76 13.92 0.42 11.11 0.42ZM32.43 0L28.68 0 28.68-17.71 23.96-17.71 23.96-20.83 28.78-20.83 28.78-27.78 32.32-27.78 32.32-20.83 37.5-20.83 37.5-17.71 32.43-17.71 32.43 0ZM50.79 0.28L50.79 0.28Q47.95 0.28 45.59-1.16 43.22-2.6 41.82-5.03 40.41-7.47 40.41-10.42L40.41-10.42Q40.41-13.37 41.82-15.8 43.22-18.23 45.59-19.67 47.95-21.11 50.79-21.11L50.79-21.11Q52.95-21.11 54.84-20.31 56.73-19.51 58.12-18.09L58.12-18.09 58.12-20.83 61.59-20.83 61.59 0 58.12 0 58.12-2.74Q56.73-1.35 54.84-0.54 52.95 0.28 50.79 0.28ZM51.28-3.13L51.28-3.13Q53.26-3.13 54.87-4.11 56.49-5.1 57.44-6.75 58.4-8.4 58.4-10.42L58.4-10.42Q58.4-12.43 57.44-14.08 56.49-15.73 54.87-16.72 53.26-17.71 51.28-17.71L51.28-17.71Q49.3-17.71 47.69-16.72 46.07-15.73 45.12-14.08 44.16-12.43 44.16-10.42L44.16-10.42Q44.16-8.4 45.12-6.75 46.07-5.1 47.69-4.11 49.3-3.13 51.28-3.13ZM72.01 0L68.26 0 68.26-20.83 71.73-20.83 71.73-17.01Q72.84-18.85 74.68-19.95 76.52-21.04 79.06-21.04L79.06-21.04 79.99-17.29Q79.33-17.5 78.46-17.5L78.46-17.5Q75.55-17.5 73.78-15.64 72.01-13.78 72.01-10.35L72.01-10.35 72.01 0ZM90.06 0L86.31 0 86.31-17.71 81.59-17.71 81.59-20.83 86.41-20.83 86.41-27.78 89.96-27.78 89.96-20.83 95.13-20.83 95.13-17.71 90.06-17.71 90.06 0ZM103.25 0L99.5 0 99.5-20.83 103.25-20.83 103.25 0ZM101.38-24.58L101.38-24.58Q100.33-24.58 99.61-25.31 98.88-26.04 98.88-27.08L98.88-27.08Q98.88-28.16 99.61-28.87 100.33-29.58 101.38-29.58L101.38-29.58Q102.45-29.58 103.16-28.87 103.88-28.16 103.88-27.08L103.88-27.08Q103.88-26.04 103.16-25.31 102.45-24.58 101.38-24.58ZM119.5 0.42L119.5 0.42Q116.44 0.42 113.94-1.04 111.44-2.5 109.95-4.97 108.46-7.43 108.46-10.42L108.46-10.42Q108.46-13.4 109.95-15.87 111.44-18.33 113.94-19.79 116.44-21.25 119.5-21.25L119.5-21.25Q121.76-21.25 123.74-20.45 125.71-19.65 127.21-18.33L127.21-18.33 126.06-13.61Q125.19-15.35 123.44-16.53 121.69-17.71 119.46-17.71L119.46-17.71Q117.45-17.71 115.8-16.72 114.15-15.73 113.18-14.08 112.21-12.43 112.21-10.42L112.21-10.42Q112.21-8.44 113.18-6.77 114.15-5.1 115.8-4.11 117.45-3.13 119.46-3.13L119.46-3.13Q121.69-3.13 123.44-4.27 125.19-5.42 126.06-7.22L126.06-7.22 127.21-2.5Q125.71-1.18 123.74-0.38 121.76 0.42 119.5 0.42ZM135.54 0L131.79 0 131.79-33.33 135.54-33.33 135.54 0ZM152.13 0.42L152.13 0.42Q148.87 0.42 146.28-1.04 143.7-2.5 142.22-5.02 140.74-7.53 140.74-10.63L140.74-10.63Q140.74-13.58 142.17-15.99 143.59-18.4 146-19.83 148.42-21.25 151.33-21.25L151.33-21.25Q154.22-21.25 156.61-19.88 159.01-18.51 160.43-16.18 161.86-13.85 161.86-10.9L161.86-10.9 161.86-9.38 148.24-9.38Q147.34-9.38 146.4-9.44 145.47-9.51 144.56-9.65L144.56-9.65Q144.95-6.88 147.08-5 149.22-3.13 152.17-3.13L152.17-3.13Q154.15-3.13 155.85-4.03 157.55-4.93 158.59-6.42L158.59-6.42 159.63-2.15Q158.14-0.94 156.21-0.26 154.29 0.42 152.13 0.42ZM144.46-12.19L144.46-12.19Q146.33-12.5 148.24-12.5L148.24-12.5 155.15-12.5Q155.92-12.5 156.66-12.45 157.41-12.4 158.17-12.33L158.17-12.33Q157.69-14.76 155.74-16.34 153.8-17.92 151.33-17.92L151.33-17.92Q148.8-17.92 146.89-16.23 144.98-14.55 144.46-12.19Z" opacity="1" transform="matrix(1,0,0,1,0,0)" fill="#ffffff" class="wordmark-text-0" data-fill-palette-color="primary" id="text-0"></path></svg></g></svg></g><g transform="matrix(1,0,0,1,75.54431999999998,103.5527961851035)"><svg viewBox="0 0 244.43136 14.307885143277" height="14.307885143277" width="244.43136"><g transform="matrix(1,0,0,1,0,0)"><svg width="244.43136" viewBox="0.4 -34 816.5 47.8" height="14.307885143277" data-palette-color="#4b91f1"><path d="M11.55 0.5L11.55 0.5Q10.95 0.5 10.33 0.3 9.7 0.1 9.3-0.65 8.9-1.4 8.9-2.95L8.9-2.95Q8.9-4.05 9.08-5.65 9.25-7.25 9.55-9.1L9.55-9.1Q9.95-11.6 10.23-14.38 10.5-17.15 10.5-20.05L10.5-20.05Q10.5-22.4 10.28-24.13 10.05-25.85 9.7-26.8L9.7-26.8Q7.8-26.75 6.1-26.55 4.4-26.35 2.65-25.9L2.65-25.9Q2.2-25.85 1.88-25.78 1.55-25.7 1.25-25.7L1.25-25.7Q0.8-25.7 0.6-25.88 0.4-26.05 0.4-26.75L0.4-26.75Q0.4-27.6 0.65-28.53 0.9-29.45 1.4-30.1L1.4-30.1Q1.9-30.8 2.58-31.13 3.25-31.45 4.05-31.55L4.05-31.55Q5.3-31.7 7.25-31.83 9.2-31.95 11.53-32.05 13.85-32.15 16.1-32.15L16.1-32.15Q19.75-32.15 21.33-32.1 22.9-32.05 23.45-31.95L23.45-31.95Q24.15-31.85 24.43-31.53 24.7-31.2 24.7-30.5L24.7-30.5Q24.7-29.15 23.5-27.8L23.5-27.8Q23-27.2 22.45-26.88 21.9-26.55 21-26.6L21-26.6Q20.2-26.7 18.65-26.75 17.1-26.8 15.2-26.8L15.2-26.8Q15.15-25.05 14.93-22.73 14.7-20.4 14.4-18.05L14.4-18.05Q14.1-15.75 13.9-13.45 13.7-11.15 13.7-9.25L13.7-9.25Q13.7-7.5 14.03-6.18 14.35-4.85 15.35-3.9L15.35-3.9Q16.05-3.2 16.05-2.4L16.05-2.4Q16.05-1.3 14.8-0.4 13.55 0.5 11.55 0.5ZM28.45 0.55L28.45 0.55Q27.75 0.55 27.25 0.23 26.75-0.1 26.85-0.65L26.85-0.65Q27.6-4.65 28.12-8.78 28.65-12.9 28.65-17.1L28.65-17.1Q28.65-20.8 28.4-23.8 28.15-26.8 26.8-29.55L26.8-29.55Q26.55-30.1 26.4-30.5 26.25-30.9 26.25-31.25L26.25-31.25Q26.25-32.2 27.37-33.1 28.5-34 29.75-34L29.75-34Q31.5-34 32.15-31.8 32.8-29.6 32.8-25.3L32.8-25.3Q32.8-20.15 32.2-16.32 31.6-12.5 31.15-10.5L31.15-10.5 31.35-10.4Q32.35-13.05 33.77-15.35 35.2-17.65 37.1-19.05 39-20.45 41.5-20.45L41.5-20.45Q44.15-20.45 45.52-18.85 46.9-17.25 46.9-14.9L46.9-14.9Q46.9-13.9 46.7-12.98 46.5-12.05 46.25-11.2L46.25-11.2Q46-10.4 45.8-9.58 45.6-8.75 45.6-7.9L45.6-7.9Q45.6-6.35 46.35-5.38 47.1-4.4 48.35-4L48.35-4Q48.7-3.9 48.87-3.73 49.05-3.55 49.05-3.1L49.05-3.1Q49.05-2.65 48.75-1.8 48.45-0.95 47.65-0.23 46.85 0.5 45.3 0.5L45.3 0.5Q43.3 0.5 42.2-0.93 41.1-2.35 41.1-4.6L41.1-4.6Q41.1-5.7 41.32-6.85 41.55-8 41.85-9.05L41.85-9.05Q42.1-10.1 42.3-11.03 42.5-11.95 42.5-12.6L42.5-12.6Q42.5-14.9 40.1-14.9L40.1-14.9Q38.1-14.9 36.57-13.48 35.05-12.05 33.97-9.88 32.9-7.7 32.2-5.4L32.2-5.4 32.2-3.7Q32.2-1.85 31.12-0.65 30.05 0.55 28.45 0.55ZM60.09 0.65L60.09 0.65Q56.3 0.65 54.17-1.53 52.05-3.7 52.05-7.6L52.05-7.6Q52.05-11.15 53.59-14.05 55.14-16.95 57.77-18.68 60.39-20.4 63.55-20.4L63.55-20.4Q66.55-20.4 68.34-18.93 70.14-17.45 70.14-15L70.14-15Q70.14-13.05 68.94-11.4 67.75-9.75 65.75-8.78 63.74-7.8 61.3-7.8L61.3-7.8Q58.3-7.8 56.39-9.15L56.39-9.15Q56.45-6.85 57.97-5.45 59.49-4.05 61.89-4.05L61.89-4.05Q63.34-4.05 64.87-4.58 66.39-5.1 67.5-6L67.5-6Q68.19-6.6 68.8-6.6L68.8-6.6Q69.3-6.6 69.62-6.28 69.94-5.95 69.94-5.45L69.94-5.45Q69.94-4.35 68.05-2.55L68.05-2.55Q64.69 0.65 60.09 0.65ZM60.84-11.1L60.84-11.1Q62.64-11.1 63.84-11.85 65.05-12.6 65.05-13.75L65.05-13.75Q65.05-14.7 64.25-15.23 63.45-15.75 62.05-15.75L62.05-15.75Q60.2-15.75 58.82-14.78 57.45-13.8 56.84-12.05L56.84-12.05Q57.55-11.6 58.64-11.35 59.74-11.1 60.84-11.1ZM94.69 0.65L94.69 0.65Q91.69 0.65 89.87-1.23 88.04-3.1 88.04-6.6L88.04-6.6Q88.04-9.1 89.02-11.58 89.99-14.05 91.84-16.05 93.69-18.05 96.29-19.25 98.89-20.45 102.14-20.45L102.14-20.45Q105.14-20.45 107.27-19.43 109.39-18.4 109.39-16.65L109.39-16.65Q109.39-16.2 109.29-15.48 109.19-14.75 109.04-14.3L109.04-14.3Q108.89-13.9 108.62-13.58 108.34-13.25 107.89-13.25L107.89-13.25Q107.69-13.25 107.14-13.4L107.14-13.4Q106.94-12.35 106.84-11.35 106.74-10.35 106.74-9.35L106.74-9.35Q106.74-7.45 107.31-5.98 107.89-4.5 109.59-4.15L109.59-4.15Q110.04-4.05 110.31-3.85 110.59-3.65 110.59-3L110.59-3Q110.59-2.45 110.31-1.6 110.04-0.75 109.27-0.08 108.49 0.6 107.04 0.6L107.04 0.6Q105.09 0.6 104.04-0.83 102.99-2.25 102.99-4.9L102.99-4.9Q101.64-2.45 99.56-0.9 97.49 0.65 94.69 0.65ZM96.29-4.55L96.29-4.55Q98.29-4.55 99.81-5.8 101.34-7.05 102.19-8.95L102.19-8.95Q102.74-10.15 103.04-11.58 103.34-13 103.44-14.4L103.44-14.4Q102.59-14.8 101.49-15.05 100.39-15.3 99.19-15.3L99.19-15.3Q96.14-15.3 94.17-13.5 92.19-11.7 92.19-9L92.19-9Q92.19-7 93.29-5.78 94.39-4.55 96.29-4.55ZM120.74 0.7L120.74 0.7Q119.39 0.7 118.41-0.13 117.44-0.95 117.24-3.2L117.24-3.2Q117.14-4.9 116.81-6.95 116.49-9 115.99-10.85 115.49-12.7 114.84-13.75L114.84-13.75Q114.49-14.3 114.06-14.58 113.64-14.85 112.79-14.95L112.79-14.95Q112.24-15 112.04-15.3 111.84-15.6 111.84-16.25L111.84-16.25Q111.84-18.3 112.96-19.28 114.09-20.25 115.54-20.25L115.54-20.25Q117.04-20.25 118.04-19.28 119.04-18.3 119.59-16.7 120.14-15.1 120.36-13.18 120.59-11.25 120.59-9.3L120.59-9.3Q120.59-8.5 120.56-7.63 120.54-6.75 120.54-6.15L120.54-6.15Q120.54-5.6 120.76-5.3 120.99-5 121.64-5L121.64-5Q122.44-5 123.49-5.48 124.54-5.95 125.56-6.85 126.59-7.75 127.26-8.97 127.94-10.2 127.94-11.7L127.94-11.7Q127.94-12.55 127.66-13.5 127.39-14.45 126.79-15.1L126.79-15.1Q126.19-15.75 125.91-16.13 125.64-16.5 125.64-17L125.64-17Q125.64-17.9 126.46-18.65 127.29-19.4 128.41-19.85 129.54-20.3 130.39-20.3L130.39-20.3Q131.84-20.3 132.24-19.1 132.64-17.9 132.64-16.45L132.64-16.45Q132.64-13.7 131.64-10.7 130.64-7.7 128.94-5.1 127.24-2.5 125.11-0.9 122.99 0.7 120.74 0.7ZM141.79 0.65L141.79 0.65Q138.79 0.65 136.96-1.23 135.14-3.1 135.14-6.6L135.14-6.6Q135.14-9.1 136.11-11.58 137.09-14.05 138.94-16.05 140.79-18.05 143.39-19.25 145.99-20.45 149.24-20.45L149.24-20.45Q152.24-20.45 154.36-19.43 156.49-18.4 156.49-16.65L156.49-16.65Q156.49-16.2 156.39-15.48 156.29-14.75 156.14-14.3L156.14-14.3Q155.99-13.9 155.71-13.58 155.44-13.25 154.99-13.25L154.99-13.25Q154.79-13.25 154.24-13.4L154.24-13.4Q154.04-12.35 153.94-11.35 153.84-10.35 153.84-9.35L153.84-9.35Q153.84-7.45 154.41-5.98 154.99-4.5 156.69-4.15L156.69-4.15Q157.14-4.05 157.41-3.85 157.69-3.65 157.69-3L157.69-3Q157.69-2.45 157.41-1.6 157.14-0.75 156.36-0.08 155.59 0.6 154.14 0.6L154.14 0.6Q152.19 0.6 151.14-0.83 150.09-2.25 150.09-4.9L150.09-4.9Q148.74-2.45 146.66-0.9 144.59 0.65 141.79 0.65ZM143.39-4.55L143.39-4.55Q145.39-4.55 146.91-5.8 148.44-7.05 149.29-8.95L149.29-8.95Q149.84-10.15 150.14-11.58 150.44-13 150.54-14.4L150.54-14.4Q149.69-14.8 148.59-15.05 147.49-15.3 146.29-15.3L146.29-15.3Q143.24-15.3 141.26-13.5 139.29-11.7 139.29-9L139.29-9Q139.29-7 140.39-5.78 141.49-4.55 143.39-4.55ZM167.03 0.65L167.03 0.65Q164.53 0.65 163.16-0.8 161.78-2.25 161.78-5L161.78-5Q161.78-6.95 162.33-9L162.33-9Q162.58-9.85 162.73-10.7 162.88-11.55 162.88-12.4L162.88-12.4Q162.88-14.6 161.53-15.25L161.53-15.25Q160.23-15.95 160.23-16.75L160.23-16.75Q160.23-17.55 160.91-18.35 161.58-19.15 162.58-19.68 163.58-20.2 164.58-20.2L164.58-20.2Q167.43-20.2 167.43-15.55L167.43-15.55Q167.43-14.05 167.21-12.78 166.98-11.5 166.68-10.35L166.68-10.35Q166.48-9.55 166.36-8.75 166.23-7.95 166.23-7.35L166.23-7.35Q166.23-4.85 168.68-4.85L168.68-4.85Q170.98-4.85 172.98-7.3 174.98-9.75 176.28-14.15L176.28-14.15 176.23-15.1Q176.13-17.6 177.11-18.9 178.08-20.2 179.98-20.2L179.98-20.2Q181.63-20.2 181.63-19.15L181.63-19.15Q181.63-18.8 181.51-18.25 181.38-17.7 181.13-16.95L181.13-16.95Q180.63-15.1 180.28-13.03 179.93-10.95 179.93-9.2L179.93-9.2Q179.93-7.25 180.53-5.98 181.13-4.7 182.78-4.25L182.78-4.25Q183.23-4.2 183.51-3.98 183.78-3.75 183.78-3.05L183.78-3.05Q183.78-1.85 182.78-0.7 181.78 0.45 179.88 0.45L179.88 0.45Q176.23 0.45 176.23-4.7L176.23-4.7Q176.23-5.6 176.38-7.4L176.38-7.4 176.28-7.45Q173.13 0.65 167.03 0.65ZM189.43 0.55L189.43 0.55Q187.63 0.55 187.83-0.65L187.83-0.65Q188.38-2.8 188.76-5.03 189.13-7.25 189.13-9.3L189.13-9.3Q189.13-11.95 188.81-13.18 188.48-14.4 187.93-14.88 187.38-15.35 186.58-15.6L186.58-15.6Q186.23-15.75 185.96-16 185.68-16.25 185.68-16.7L185.68-16.7Q185.68-17.4 186.23-18.25 186.78-19.1 187.81-19.73 188.83-20.35 190.13-20.35L190.13-20.35Q191.83-20.35 192.48-19.18 193.13-18 193.13-16.1L193.13-16.1Q193.13-14.85 192.88-13.3 192.63-11.75 192.38-10.5L192.38-10.5 192.53-10.45Q193.53-13.1 194.96-15.38 196.38-17.65 198.28-19.05 200.18-20.45 202.68-20.45L202.68-20.45Q205.33-20.45 206.73-18.85 208.13-17.25 208.13-14.85L208.13-14.85Q208.13-13.85 207.91-12.95 207.68-12.05 207.43-11.2L207.43-11.2Q207.18-10.4 207.01-9.55 206.83-8.7 206.83-7.85L206.83-7.85Q206.83-5 209.53-4L209.53-4Q210.23-3.7 210.23-3.1L210.23-3.1Q210.23-2.65 209.93-1.8 209.63-0.95 208.83-0.23 208.03 0.5 206.48 0.5L206.48 0.5Q204.48 0.5 203.38-0.93 202.28-2.35 202.28-4.55L202.28-4.55Q202.28-5.8 202.56-7.08 202.83-8.35 203.13-9.45L203.13-9.45Q203.33-10.3 203.51-11.13 203.68-11.95 203.68-12.6L203.68-12.6Q203.68-14.9 201.28-14.9L201.28-14.9Q199.23-14.9 197.68-13.38 196.13-11.85 195.03-9.55 193.93-7.25 193.23-4.9L193.23-4.9 193.23-3.7Q193.23-1.85 192.21-0.65 191.18 0.55 189.43 0.55ZM220.73 0.65L220.73 0.65Q217.68 0.65 216.35-1.38 215.03-3.4 215.03-6.6L215.03-6.6Q215.03-7.75 215.15-8.85 215.28-9.95 215.43-11.05L215.43-11.05Q215.58-12.15 215.73-13.2 215.88-14.25 215.98-15.2L215.98-15.2Q214.93-14.9 213.88-14.9L213.88-14.9Q212.78-14.9 212.78-15.8L212.78-15.8Q212.78-16.75 213.63-18.13 214.48-19.5 215.75-20.85 217.03-22.2 218.3-23.13 219.58-24.05 220.48-24.05L220.48-24.05Q221.58-24.05 221.58-22.15L221.58-22.15Q221.58-21.65 221.5-21.13 221.43-20.6 221.33-20.05L221.33-20.05Q222.28-20.25 223.25-20.4 224.23-20.55 225.13-20.55L225.13-20.55Q226.28-20.55 226.9-20.15 227.53-19.75 227.53-18.6L227.53-18.6Q227.53-17.4 226.95-16.2 226.38-15 225.68-15L225.68-15Q225.53-15 225.18-15.05 224.83-15.1 224.33-15.2L224.33-15.2Q223.68-15.35 222.68-15.5 221.68-15.65 220.28-15.65L220.28-15.65Q219.93-14.1 219.65-12.48 219.38-10.85 219.38-9.55L219.38-9.55Q219.38-6.65 220.83-5.6 222.28-4.55 225.03-4.55L225.03-4.55Q225.88-4.55 226.23-4.28 226.58-4 226.58-3.3L226.58-3.3Q226.58-1.65 224.88-0.5 223.18 0.65 220.73 0.65ZM230.48-7.65L230.48-7.65Q229.73-7.65 229.73-9.1L229.73-9.1Q229.73-9.95 229.9-10.88 230.08-11.8 230.48-12.4L230.48-12.4Q230.58-12.55 230.83-12.73 231.08-12.9 231.53-12.9L231.53-12.9 242.33-12.9Q242.93-12.9 243.1-12.63 243.28-12.35 243.28-11.8L243.28-11.8Q243.28-11.25 243.13-10.4 242.98-9.55 242.63-8.9 242.28-8.25 241.68-8.25L241.68-8.25 237.23-8.25Q235.48-8.25 234.03-8.1 232.58-7.95 231.63-7.8L231.63-7.8Q230.88-7.65 230.48-7.65ZM253.12 13.8L253.12 13.8Q249.37 13.8 247.17 12.25 244.97 10.7 244.97 8.25L244.97 8.25Q244.97 6.45 246.1 5.05 247.22 3.65 249.07 3.65L249.07 3.65Q250.12 3.65 250.12 4.25L250.12 4.25Q250.12 4.6 250 5.05 249.87 5.5 249.87 5.95L249.87 5.95Q249.87 7.35 251.47 8.03 253.07 8.7 255.32 8.7L255.32 8.7Q256.72 8.7 258.17 8.4 259.62 8.1 260.6 7.48 261.57 6.85 261.57 5.8L261.57 5.8Q261.57 4.65 260.42 4.1 259.27 3.55 257.52 3.28 255.77 3 253.95 2.78 252.12 2.55 250.82 2.05L250.82 2.05Q249.17 1.5 248.37 0.7 247.57-0.1 247.57-1.35L247.57-1.35Q247.57-3.7 250.42-5.1L250.42-5.1Q248.77-5.95 247.95-7.5 247.12-9.05 247.12-10.95L247.12-10.95Q247.12-13.4 248.4-15.55 249.67-17.7 252.2-19.07 254.72-20.45 258.52-20.45L258.52-20.45Q260.22-20.45 261.97-20.13 263.72-19.8 264.9-18.93 266.07-18.05 266.07-16.4L266.07-16.4Q266.07-15.8 265.82-15.08 265.57-14.35 264.87-14.35L264.87-14.35Q264.57-14.35 264.07-14.48 263.57-14.6 263.17-14.7L263.17-14.7Q263.27-14.2 263.35-13.6 263.42-13 263.42-12.35L263.42-12.35Q263.42-9.4 261.42-7.03 259.42-4.65 255.57-4.2L255.57-4.2Q254.17-4.1 253.5-3.88 252.82-3.65 252.82-3.1L252.82-3.1Q252.82-2.6 253.42-2.38 254.02-2.15 254.97-2.05L254.97-2.05Q258.02-1.8 260.37-1.2 262.72-0.6 264.05 0.73 265.37 2.05 265.37 4.5L265.37 4.5Q265.37 7.35 263.7 9.43 262.02 11.5 259.22 12.65 256.42 13.8 253.12 13.8ZM255.02-8.55L255.02-8.55Q257.32-8.55 258.62-9.8 259.92-11.05 259.92-13.05L259.92-13.05Q259.92-13.6 259.82-14.18 259.72-14.75 259.62-15.15L259.62-15.15Q258.82-15.4 258.07-15.48 257.32-15.55 256.62-15.55L256.62-15.55Q253.97-15.55 252.47-14.55 250.97-13.55 250.97-11.8L250.97-11.8Q250.97-10.25 252.07-9.4 253.17-8.55 255.02-8.55ZM271.87 0.55L271.87 0.55Q271.07 0.55 270.6 0.28 270.12 0 270.27-0.65L270.27-0.65Q270.82-2.8 271.2-5.03 271.57-7.25 271.57-9.3L271.57-9.3Q271.57-11.95 271.25-13.18 270.92-14.4 270.37-14.88 269.82-15.35 269.02-15.6L269.02-15.6Q268.67-15.75 268.4-16 268.12-16.25 268.12-16.7L268.12-16.7Q268.12-17.4 268.67-18.25 269.22-19.1 270.22-19.73 271.22-20.35 272.52-20.35L272.52-20.35Q274.22-20.35 274.9-19.18 275.57-18 275.57-16.1L275.57-16.1Q276.47-18.1 277.8-19.28 279.12-20.45 281.12-20.45L281.12-20.45Q282.47-20.45 283.37-19.85 284.27-19.25 284.27-17.9L284.27-17.9Q284.27-16.55 283.4-15.38 282.52-14.2 281.62-14.2L281.62-14.2Q281.47-14.2 281.27-14.25 281.07-14.3 280.92-14.5L280.92-14.5Q280.27-15.3 279.32-15.3L279.32-15.3Q277.87-15.3 276.77-13.4 275.67-11.5 275.57-8.15L275.57-8.15Q275.62-6.9 275.65-5.6 275.67-4.3 275.67-3.7L275.67-3.7Q275.67-1.85 274.65-0.65 273.62 0.55 271.87 0.55ZM291.17 0.65L291.17 0.65Q288.17 0.65 286.34-1.23 284.52-3.1 284.52-6.6L284.52-6.6Q284.52-9.1 285.49-11.58 286.47-14.05 288.32-16.05 290.17-18.05 292.77-19.25 295.37-20.45 298.62-20.45L298.62-20.45Q301.62-20.45 303.74-19.43 305.87-18.4 305.87-16.65L305.87-16.65Q305.87-16.2 305.77-15.48 305.67-14.75 305.52-14.3L305.52-14.3Q305.37-13.9 305.09-13.58 304.82-13.25 304.37-13.25L304.37-13.25Q304.17-13.25 303.62-13.4L303.62-13.4Q303.42-12.35 303.32-11.35 303.22-10.35 303.22-9.35L303.22-9.35Q303.22-7.45 303.79-5.98 304.37-4.5 306.07-4.15L306.07-4.15Q306.52-4.05 306.79-3.85 307.07-3.65 307.07-3L307.07-3Q307.07-2.45 306.79-1.6 306.52-0.75 305.74-0.08 304.97 0.6 303.52 0.6L303.52 0.6Q301.57 0.6 300.52-0.83 299.47-2.25 299.47-4.9L299.47-4.9Q298.12-2.45 296.04-0.9 293.97 0.65 291.17 0.65ZM292.77-4.55L292.77-4.55Q294.77-4.55 296.29-5.8 297.82-7.05 298.67-8.95L298.67-8.95Q299.22-10.15 299.52-11.58 299.82-13 299.92-14.4L299.92-14.4Q299.07-14.8 297.97-15.05 296.87-15.3 295.67-15.3L295.67-15.3Q292.62-15.3 290.64-13.5 288.67-11.7 288.67-9L288.67-9Q288.67-7 289.77-5.78 290.87-4.55 292.77-4.55ZM316.42 0.65L316.42 0.65Q313.42 0.65 311.69-1.35 309.97-3.35 309.97-6.8L309.97-6.8Q309.97-9.35 310.79-11.8 311.62-14.25 313.12-16.2 314.62-18.15 316.62-19.3 318.62-20.45 320.97-20.45L320.97-20.45Q322.47-20.45 323.64-20 324.82-19.55 325.72-18.85L325.72-18.85Q325.67-22.25 325.37-24.95 325.07-27.65 323.92-29.95L323.92-29.95Q323.72-30.35 323.59-30.68 323.47-31 323.47-31.3L323.47-31.3Q323.47-32 324.04-32.6 324.62-33.2 325.47-33.6 326.32-34 327.07-34L327.07-34Q328.42-34 329.09-32.83 329.77-31.65 329.97-29.63 330.17-27.6 330.17-25L330.17-25Q330.17-21.2 329.82-18.15 329.47-15.1 329.17-12.8L329.17-12.8Q328.97-11.3 328.82-10.2 328.67-9.1 328.67-8.4L328.67-8.4Q328.67-4.85 331.72-4.2L331.72-4.2Q332.52-4.05 332.52-3.15L332.52-3.15Q332.52-2.6 332.19-1.75 331.87-0.9 331.02-0.23 330.17 0.45 328.57 0.45L328.57 0.45Q326.42 0.45 325.67-1 324.92-2.45 324.92-5.4L324.92-5.4Q323.52-2.85 321.37-1.1 319.22 0.65 316.42 0.65ZM317.97-4.7L317.97-4.7Q319.37-4.7 320.77-5.6 322.17-6.5 323.27-8.05L323.27-8.05Q323.92-9 324.44-10.23 324.97-11.45 325.42-12.7L325.42-12.7Q322.87-15 319.77-15L319.77-15Q317.07-15 315.47-13.38 313.87-11.75 313.87-9.35L313.87-9.35Q313.87-7.3 315.07-6 316.27-4.7 317.97-4.7ZM343.61 0.65L343.61 0.65Q339.81 0.65 337.69-1.53 335.56-3.7 335.56-7.6L335.56-7.6Q335.56-11.15 337.11-14.05 338.66-16.95 341.29-18.68 343.91-20.4 347.06-20.4L347.06-20.4Q350.06-20.4 351.86-18.93 353.66-17.45 353.66-15L353.66-15Q353.66-13.05 352.46-11.4 351.26-9.75 349.26-8.78 347.26-7.8 344.81-7.8L344.81-7.8Q341.81-7.8 339.91-9.15L339.91-9.15Q339.96-6.85 341.49-5.45 343.01-4.05 345.41-4.05L345.41-4.05Q346.86-4.05 348.39-4.58 349.91-5.1 351.01-6L351.01-6Q351.71-6.6 352.31-6.6L352.31-6.6Q352.81-6.6 353.14-6.28 353.46-5.95 353.46-5.45L353.46-5.45Q353.46-4.35 351.56-2.55L351.56-2.55Q348.21 0.65 343.61 0.65ZM344.36-11.1L344.36-11.1Q346.16-11.1 347.36-11.85 348.56-12.6 348.56-13.75L348.56-13.75Q348.56-14.7 347.76-15.23 346.96-15.75 345.56-15.75L345.56-15.75Q343.71-15.75 342.34-14.78 340.96-13.8 340.36-12.05L340.36-12.05Q341.06-11.6 342.16-11.35 343.26-11.1 344.36-11.1ZM378.61 0.65L378.61 0.65Q376.76 0.65 375.16 0.1 373.56-0.45 372.56-1.45 371.56-2.45 371.56-3.85L371.56-3.85Q371.56-4.6 371.93-5.28 372.31-5.95 373.16-5.95L373.16-5.95Q373.61-5.95 374.11-5.7L374.11-5.7Q375.01-5.2 376.41-4.78 377.81-4.35 379.36-4.35L379.36-4.35Q381.11-4.35 382.46-4.85 383.81-5.35 383.81-6.25L383.81-6.25Q383.81-6.95 382.78-7.25 381.76-7.55 379.36-7.9L379.36-7.9Q377.71-8.2 376.16-8.6 374.61-9 373.61-9.98 372.61-10.95 372.61-12.85L372.61-12.85Q372.61-14.7 373.63-16.43 374.66-18.15 376.71-19.3 378.76-20.45 381.71-20.45L381.71-20.45Q383.26-20.45 384.71-20.1 386.16-19.75 387.11-19.05 388.06-18.35 388.06-17.3L388.06-17.3Q388.06-16.4 387.43-15.65 386.81-14.9 385.98-14.43 385.16-13.95 384.61-13.95L384.61-13.95Q384.21-13.95 383.66-14.5L383.66-14.5Q382.81-15.2 381.78-15.48 380.76-15.75 379.76-15.75L379.76-15.75Q378.26-15.75 377.33-15.3 376.41-14.85 376.41-14.15L376.41-14.15Q376.41-13.5 377.18-13.1 377.96-12.7 379.11-12.53 380.26-12.35 381.31-12.2L381.31-12.2Q384.21-11.8 385.91-10.83 387.61-9.85 387.61-7.4L387.61-7.4Q387.61-5.5 386.53-3.63 385.46-1.75 383.43-0.55 381.41 0.65 378.61 0.65ZM399.81 0.65L399.81 0.65Q396.36 0.65 394.28-1.23 392.21-3.1 392.21-6.75L392.21-6.75Q392.21-8.45 392.68-10.05 393.16-11.65 393.96-13.05L393.96-13.05Q393.16-12.55 392.76-12.55L392.76-12.55Q392.16-12.55 391.93-13.23 391.71-13.9 391.71-14.55L391.71-14.55Q391.71-15.7 392.18-16.38 392.66-17.05 393.11-17.4L393.11-17.4Q394.16-18.3 396.41-19.38 398.66-20.45 401.81-20.45L401.81-20.45Q406.11-20.45 408.48-18.05 410.86-15.65 410.86-11.35L410.86-11.35Q410.86-8 409.46-5.28 408.06-2.55 405.58-0.95 403.11 0.65 399.81 0.65ZM401.36-4.45L401.36-4.45Q403.86-4.45 405.58-6.03 407.31-7.6 407.31-10.2L407.31-10.2Q407.31-12.9 405.56-14.05 403.81-15.2 401.51-15.2L401.51-15.2Q400.46-15.2 399.61-15 398.76-14.8 398.01-14.5L398.01-14.5Q397.31-13.5 396.76-12.25 396.21-11 396.21-9.5L396.21-9.5Q396.21-7 397.71-5.73 399.21-4.45 401.36-4.45ZM421.95 0.65L421.95 0.65Q418.45 0.65 416.48-1.48 414.5-3.6 414.5-7.4L414.5-7.4Q414.5-11.15 416.1-14.1 417.7-17.05 420.5-18.75 423.3-20.45 426.85-20.45L426.85-20.45Q429.25-20.45 430.65-19.65 432.05-18.85 432.05-17.45L432.05-17.45Q432.05-16.2 430.85-15L430.85-15Q430.4-14.55 429.68-14.18 428.95-13.8 428.55-13.8L428.55-13.8Q428.1-13.8 427.8-14.15L427.8-14.15Q427.3-14.7 426.5-15.2 425.7-15.7 424.25-15.7L424.25-15.7Q421.8-15.7 420.25-14.03 418.7-12.35 418.7-9.65L418.7-9.65Q418.7-7.2 420.1-5.7 421.5-4.2 423.8-4.2L423.8-4.2Q425-4.2 426.43-4.63 427.85-5.05 428.95-5.85L428.95-5.85Q429.5-6.35 430.1-6.35L430.1-6.35Q431.1-6.35 431.1-5.1L431.1-5.1Q431.1-3.45 429.45-1.95L429.45-1.95Q428.2-0.8 426.13-0.08 424.05 0.65 421.95 0.65ZM439.4-24.85L439.4-24.85Q438-24.9 437.15-25.7 436.3-26.5 436.3-27.95L436.3-27.95Q436.35-29.5 437.35-30.48 438.35-31.45 439.9-31.4L439.9-31.4Q441.35-31.35 442.18-30.55 443-29.75 442.95-28.3L442.95-28.3Q442.9-26.8 441.95-25.83 441-24.85 439.4-24.85ZM439.45 0.5L439.45 0.5Q437.95 0.5 437.1-0.33 436.25-1.15 436.25-3.15L436.25-3.15Q436.25-4.3 436.48-5.4 436.7-6.5 437-7.55L437-7.55Q437.35-8.65 437.58-9.8 437.8-10.95 437.8-12.25L437.8-12.25Q437.8-13.15 437.55-13.98 437.3-14.8 436.45-15.2L436.45-15.2Q435.8-15.55 435.33-15.93 434.85-16.3 434.85-16.9L434.85-16.9Q434.85-17.6 435.5-18.4 436.15-19.2 437.23-19.78 438.3-20.35 439.45-20.35L439.45-20.35Q440.7-20.35 441.28-19.7 441.85-19.05 442.05-18.05 442.25-17.05 442.25-16L442.25-16Q442.25-14.4 442-12.88 441.75-11.35 441.5-10.05L441.5-10.05Q441.3-9.1 441.2-8.3 441.1-7.5 441.1-6.8L441.1-6.8Q441.1-5.55 441.7-4.93 442.3-4.3 443.4-3.75L443.4-3.75Q443.85-3.5 443.85-3L443.85-3Q443.85-2.6 443.45-1.75 443.05-0.9 442.08-0.2 441.1 0.5 439.45 0.5ZM453.8 0.65L453.8 0.65Q450.8 0.65 448.97-1.23 447.15-3.1 447.15-6.6L447.15-6.6Q447.15-9.1 448.12-11.58 449.1-14.05 450.95-16.05 452.8-18.05 455.4-19.25 458-20.45 461.25-20.45L461.25-20.45Q464.25-20.45 466.37-19.43 468.5-18.4 468.5-16.65L468.5-16.65Q468.5-16.2 468.4-15.48 468.3-14.75 468.15-14.3L468.15-14.3Q468-13.9 467.72-13.58 467.45-13.25 467-13.25L467-13.25Q466.8-13.25 466.25-13.4L466.25-13.4Q466.05-12.35 465.95-11.35 465.85-10.35 465.85-9.35L465.85-9.35Q465.85-7.45 466.42-5.98 467-4.5 468.7-4.15L468.7-4.15Q469.15-4.05 469.42-3.85 469.7-3.65 469.7-3L469.7-3Q469.7-2.45 469.42-1.6 469.15-0.75 468.37-0.08 467.6 0.6 466.15 0.6L466.15 0.6Q464.2 0.6 463.15-0.83 462.1-2.25 462.1-4.9L462.1-4.9Q460.75-2.45 458.67-0.9 456.6 0.65 453.8 0.65ZM455.4-4.55L455.4-4.55Q457.4-4.55 458.92-5.8 460.45-7.05 461.3-8.95L461.3-8.95Q461.85-10.15 462.15-11.58 462.45-13 462.55-14.4L462.55-14.4Q461.7-14.8 460.6-15.05 459.5-15.3 458.3-15.3L458.3-15.3Q455.25-15.3 453.27-13.5 451.3-11.7 451.3-9L451.3-9Q451.3-7 452.4-5.78 453.5-4.55 455.4-4.55ZM476.5 0.5L476.5 0.5Q475.05 0.5 474.35-0.3 473.65-1.1 473.65-3.1L473.65-3.1Q473.65-4.05 473.8-5.55 473.95-7.05 474.15-8.8L474.15-8.8Q474.45-10.95 474.67-13.3 474.9-15.65 474.9-17.8L474.9-17.8Q474.9-20.85 474.62-24.13 474.35-27.4 473.1-29.85L473.1-29.85Q472.65-30.85 472.65-31.3L472.65-31.3Q472.65-31.95 473.22-32.55 473.8-33.15 474.65-33.58 475.5-34 476.3-34L476.3-34Q477.6-34 478.25-32.83 478.9-31.65 479.1-29.63 479.3-27.6 479.3-25L479.3-25Q479.3-21.05 478.97-18.15 478.65-15.25 478.35-13.05L478.35-13.05Q478.15-11.6 477.97-10.3 477.8-9 477.8-7.95L477.8-7.95Q477.8-6.2 478.37-5.43 478.95-4.65 480.25-3.9L480.25-3.9Q480.6-3.7 480.77-3.53 480.95-3.35 480.95-3L480.95-3Q480.95-2.6 480.55-1.75 480.15-0.9 479.17-0.2 478.2 0.5 476.5 0.5ZM501.49 0.55L501.49 0.55Q499.69 0.55 499.89-0.65L499.89-0.65Q500.44-2.8 500.81-5.03 501.19-7.25 501.19-9.3L501.19-9.3Q501.19-11.95 500.87-13.18 500.54-14.4 499.99-14.88 499.44-15.35 498.64-15.6L498.64-15.6Q498.29-15.75 498.02-16 497.74-16.25 497.74-16.7L497.74-16.7Q497.74-17.4 498.29-18.25 498.84-19.1 499.87-19.73 500.89-20.35 502.19-20.35L502.19-20.35Q503.89-20.35 504.54-19.18 505.19-18 505.19-16.1L505.19-16.1Q505.19-14.85 504.94-13.3 504.69-11.75 504.44-10.5L504.44-10.5 504.54-10.45Q505.34-13.1 506.52-15.35 507.69-17.6 509.37-19 511.04-20.4 513.24-20.4L513.24-20.4Q515.49-20.4 516.79-18.88 518.09-17.35 518.09-14.4L518.09-14.4 518.09-13.3Q519.54-16.35 521.62-18.4 523.69-20.45 526.64-20.45L526.64-20.45Q529.04-20.45 530.39-18.85 531.74-17.25 531.74-14.85L531.74-14.85Q531.74-13.9 531.54-13.03 531.34-12.15 531.09-11.3L531.09-11.3Q530.89-10.5 530.69-9.65 530.49-8.8 530.49-7.95L530.49-7.95Q530.49-4.95 533.04-4.05L533.04-4.05Q533.39-3.9 533.59-3.73 533.79-3.55 533.79-3.1L533.79-3.1Q533.79-2.65 533.51-1.8 533.24-0.95 532.44-0.23 531.64 0.5 530.14 0.5L530.14 0.5Q528.19 0.5 527.14-0.93 526.09-2.35 526.09-4.55L526.09-4.55Q526.09-5.65 526.29-6.85 526.49-8.05 526.79-9.15L526.79-9.15Q527.04-10.15 527.22-11.05 527.39-11.95 527.39-12.6L527.39-12.6Q527.39-13.8 526.82-14.35 526.24-14.9 525.29-14.9L525.29-14.9Q523.69-14.9 522.41-13.9 521.14-12.9 520.16-11.3 519.19-9.7 518.49-7.8L518.49-7.8Q518.54-7.35 518.57-6.63 518.59-5.9 518.59-5.35L518.59-5.35Q518.59-4.4 518.47-3.35 518.34-2.3 517.99-1.6L517.99-1.6Q517.59-0.65 516.82-0.05 516.04 0.55 514.74 0.55L514.74 0.55Q514.19 0.55 513.69 0.33 513.19 0.1 513.19-0.4L513.19-0.4Q513.19-0.6 513.49-2.18 513.79-3.75 514.09-6.05 514.39-8.35 514.39-10.55L514.39-10.55Q514.39-12.95 513.89-13.88 513.39-14.8 512.39-14.8L512.39-14.8Q511.14-14.8 510.02-13.75 508.89-12.7 507.97-11.05 507.04-9.4 506.37-7.6 505.69-5.8 505.29-4.25L505.29-4.25 505.29-3.7Q505.29-1.85 504.27-0.65 503.24 0.55 501.49 0.55ZM544.84 0.65L544.84 0.65Q541.04 0.65 538.91-1.53 536.79-3.7 536.79-7.6L536.79-7.6Q536.79-11.15 538.34-14.05 539.89-16.95 542.51-18.68 545.14-20.4 548.29-20.4L548.29-20.4Q551.29-20.4 553.09-18.93 554.89-17.45 554.89-15L554.89-15Q554.89-13.05 553.69-11.4 552.49-9.75 550.49-8.78 548.49-7.8 546.04-7.8L546.04-7.8Q543.04-7.8 541.14-9.15L541.14-9.15Q541.19-6.85 542.71-5.45 544.24-4.05 546.64-4.05L546.64-4.05Q548.09-4.05 549.61-4.58 551.14-5.1 552.24-6L552.24-6Q552.94-6.6 553.54-6.6L553.54-6.6Q554.04-6.6 554.36-6.28 554.69-5.95 554.69-5.45L554.69-5.45Q554.69-4.35 552.79-2.55L552.79-2.55Q549.44 0.65 544.84 0.65ZM545.59-11.1L545.59-11.1Q547.39-11.1 548.59-11.85 549.79-12.6 549.79-13.75L549.79-13.75Q549.79-14.7 548.99-15.23 548.19-15.75 546.79-15.75L546.79-15.75Q544.94-15.75 543.56-14.78 542.19-13.8 541.59-12.05L541.59-12.05Q542.29-11.6 543.39-11.35 544.49-11.1 545.59-11.1ZM564.98 0.65L564.98 0.65Q561.98 0.65 560.26-1.35 558.53-3.35 558.53-6.8L558.53-6.8Q558.53-9.35 559.36-11.8 560.18-14.25 561.68-16.2 563.18-18.15 565.18-19.3 567.18-20.45 569.53-20.45L569.53-20.45Q571.03-20.45 572.21-20 573.38-19.55 574.28-18.85L574.28-18.85Q574.23-22.25 573.93-24.95 573.63-27.65 572.48-29.95L572.48-29.95Q572.28-30.35 572.16-30.68 572.03-31 572.03-31.3L572.03-31.3Q572.03-32 572.61-32.6 573.18-33.2 574.03-33.6 574.88-34 575.63-34L575.63-34Q576.98-34 577.66-32.83 578.33-31.65 578.53-29.63 578.73-27.6 578.73-25L578.73-25Q578.73-21.2 578.38-18.15 578.03-15.1 577.73-12.8L577.73-12.8Q577.53-11.3 577.38-10.2 577.23-9.1 577.23-8.4L577.23-8.4Q577.23-4.85 580.28-4.2L580.28-4.2Q581.08-4.05 581.08-3.15L581.08-3.15Q581.08-2.6 580.76-1.75 580.43-0.9 579.58-0.23 578.73 0.45 577.13 0.45L577.13 0.45Q574.98 0.45 574.23-1 573.48-2.45 573.48-5.4L573.48-5.4Q572.08-2.85 569.93-1.1 567.78 0.65 564.98 0.65ZM566.53-4.7L566.53-4.7Q567.93-4.7 569.33-5.6 570.73-6.5 571.83-8.05L571.83-8.05Q572.48-9 573.01-10.23 573.53-11.45 573.98-12.7L573.98-12.7Q571.43-15 568.33-15L568.33-15Q565.63-15 564.03-13.38 562.43-11.75 562.43-9.35L562.43-9.35Q562.43-7.3 563.63-6 564.83-4.7 566.53-4.7ZM588.53-24.85L588.53-24.85Q587.13-24.9 586.28-25.7 585.43-26.5 585.43-27.95L585.43-27.95Q585.48-29.5 586.48-30.48 587.48-31.45 589.03-31.4L589.03-31.4Q590.48-31.35 591.31-30.55 592.13-29.75 592.08-28.3L592.08-28.3Q592.03-26.8 591.08-25.83 590.13-24.85 588.53-24.85ZM588.58 0.5L588.58 0.5Q587.08 0.5 586.23-0.33 585.38-1.15 585.38-3.15L585.38-3.15Q585.38-4.3 585.61-5.4 585.83-6.5 586.13-7.55L586.13-7.55Q586.48-8.65 586.71-9.8 586.93-10.95 586.93-12.25L586.93-12.25Q586.93-13.15 586.68-13.98 586.43-14.8 585.58-15.2L585.58-15.2Q584.93-15.55 584.46-15.93 583.98-16.3 583.98-16.9L583.98-16.9Q583.98-17.6 584.63-18.4 585.28-19.2 586.36-19.78 587.43-20.35 588.58-20.35L588.58-20.35Q589.83-20.35 590.41-19.7 590.98-19.05 591.18-18.05 591.38-17.05 591.38-16L591.38-16Q591.38-14.4 591.13-12.88 590.88-11.35 590.63-10.05L590.63-10.05Q590.43-9.1 590.33-8.3 590.23-7.5 590.23-6.8L590.23-6.8Q590.23-5.55 590.83-4.93 591.43-4.3 592.53-3.75L592.53-3.75Q592.98-3.5 592.98-3L592.98-3Q592.98-2.6 592.58-1.75 592.18-0.9 591.21-0.2 590.23 0.5 588.58 0.5ZM602.93 0.65L602.93 0.65Q599.93 0.65 598.1-1.23 596.28-3.1 596.28-6.6L596.28-6.6Q596.28-9.1 597.25-11.58 598.23-14.05 600.08-16.05 601.93-18.05 604.53-19.25 607.13-20.45 610.38-20.45L610.38-20.45Q613.38-20.45 615.5-19.43 617.63-18.4 617.63-16.65L617.63-16.65Q617.63-16.2 617.53-15.48 617.43-14.75 617.28-14.3L617.28-14.3Q617.13-13.9 616.85-13.58 616.58-13.25 616.13-13.25L616.13-13.25Q615.93-13.25 615.38-13.4L615.38-13.4Q615.18-12.35 615.08-11.35 614.98-10.35 614.98-9.35L614.98-9.35Q614.98-7.45 615.55-5.98 616.13-4.5 617.83-4.15L617.83-4.15Q618.28-4.05 618.55-3.85 618.83-3.65 618.83-3L618.83-3Q618.83-2.45 618.55-1.6 618.28-0.75 617.5-0.08 616.73 0.6 615.28 0.6L615.28 0.6Q613.33 0.6 612.28-0.83 611.23-2.25 611.23-4.9L611.23-4.9Q609.88-2.45 607.8-0.9 605.73 0.65 602.93 0.65ZM604.53-4.55L604.53-4.55Q606.53-4.55 608.05-5.8 609.58-7.05 610.43-8.95L610.43-8.95Q610.98-10.15 611.28-11.58 611.58-13 611.68-14.4L611.68-14.4Q610.83-14.8 609.73-15.05 608.63-15.3 607.43-15.3L607.43-15.3Q604.38-15.3 602.4-13.5 600.43-11.7 600.43-9L600.43-9Q600.43-7 601.53-5.78 602.63-4.55 604.53-4.55ZM639.57 13.8L639.57 13.8Q638.07 13.8 637.22 12.98 636.37 12.15 636.37 10L636.37 10Q636.37 8.55 636.7 6.35 637.02 4.15 637.47 1.7L637.47 1.7Q637.82-0.25 638.15-2.4 638.47-4.55 638.7-6.63 638.92-8.7 638.92-10.35L638.92-10.35Q638.92-12.25 638.5-13.65 638.07-15.05 636.77-15.45L636.77-15.45Q636.27-15.65 635.87-15.9 635.47-16.15 635.47-16.7L635.47-16.7Q635.47-17.4 636.02-18.25 636.57-19.1 637.6-19.73 638.62-20.35 639.92-20.35L639.92-20.35Q641.62-20.35 642.27-19.18 642.92-18 642.92-16.1L642.92-16.1Q642.92-15.55 642.87-14.98 642.82-14.4 642.72-13.8L642.72-13.8Q644.17-16.6 646.55-18.53 648.92-20.45 651.92-20.45L651.92-20.45Q654.92-20.45 656.65-18.43 658.37-16.4 658.37-12.95L658.37-12.95Q658.37-10.4 657.57-7.98 656.77-5.55 655.32-3.6 653.87-1.65 651.85-0.5 649.82 0.65 647.32 0.65L647.32 0.65Q645.52 0.65 644.17 0.03 642.82-0.6 641.82-1.6L641.82-1.6Q641.62-0.3 641.45 1.55 641.27 3.4 641.27 5L641.27 5Q641.27 6.85 641.7 7.9 642.12 8.95 643.37 9.5L643.37 9.5Q643.92 9.75 643.92 10.3L643.92 10.3Q643.92 10.7 643.52 11.55 643.12 12.4 642.2 13.1 641.27 13.8 639.57 13.8ZM648.47-4.75L648.47-4.75Q651.32-4.75 652.87-6.55 654.42-8.35 654.42-10.7L654.42-10.7Q654.42-12.75 653.32-13.88 652.22-15 650.37-15L650.37-15Q648.47-15 647.02-13.88 645.57-12.75 644.55-10.95 643.52-9.15 642.87-7.1L642.87-7.1Q645.37-4.75 648.47-4.75ZM665.92 0.5L665.92 0.5Q664.47 0.5 663.77-0.3 663.07-1.1 663.07-3.1L663.07-3.1Q663.07-4.05 663.22-5.55 663.37-7.05 663.57-8.8L663.57-8.8Q663.87-10.95 664.1-13.3 664.32-15.65 664.32-17.8L664.32-17.8Q664.32-20.85 664.05-24.13 663.77-27.4 662.52-29.85L662.52-29.85Q662.07-30.85 662.07-31.3L662.07-31.3Q662.07-31.95 662.65-32.55 663.22-33.15 664.07-33.58 664.92-34 665.72-34L665.72-34Q667.02-34 667.67-32.83 668.32-31.65 668.52-29.63 668.72-27.6 668.72-25L668.72-25Q668.72-21.05 668.4-18.15 668.07-15.25 667.77-13.05L667.77-13.05Q667.57-11.6 667.4-10.3 667.22-9 667.22-7.95L667.22-7.95Q667.22-6.2 667.8-5.43 668.37-4.65 669.67-3.9L669.67-3.9Q670.02-3.7 670.2-3.53 670.37-3.35 670.37-3L670.37-3Q670.37-2.6 669.97-1.75 669.57-0.9 668.6-0.2 667.62 0.5 665.92 0.5ZM679.82 0.65L679.82 0.65Q676.82 0.65 674.99-1.23 673.17-3.1 673.17-6.6L673.17-6.6Q673.17-9.1 674.14-11.58 675.12-14.05 676.97-16.05 678.82-18.05 681.42-19.25 684.02-20.45 687.27-20.45L687.27-20.45Q690.27-20.45 692.39-19.43 694.52-18.4 694.52-16.65L694.52-16.65Q694.52-16.2 694.42-15.48 694.32-14.75 694.17-14.3L694.17-14.3Q694.02-13.9 693.74-13.58 693.47-13.25 693.02-13.25L693.02-13.25Q692.82-13.25 692.27-13.4L692.27-13.4Q692.07-12.35 691.97-11.35 691.87-10.35 691.87-9.35L691.87-9.35Q691.87-7.45 692.44-5.98 693.02-4.5 694.72-4.15L694.72-4.15Q695.17-4.05 695.44-3.85 695.72-3.65 695.72-3L695.72-3Q695.72-2.45 695.44-1.6 695.17-0.75 694.39-0.08 693.62 0.6 692.17 0.6L692.17 0.6Q690.22 0.6 689.17-0.83 688.12-2.25 688.12-4.9L688.12-4.9Q686.77-2.45 684.69-0.9 682.62 0.65 679.82 0.65ZM681.42-4.55L681.42-4.55Q683.42-4.55 684.94-5.8 686.47-7.05 687.32-8.95L687.32-8.95Q687.87-10.15 688.17-11.58 688.47-13 688.57-14.4L688.57-14.4Q687.72-14.8 686.62-15.05 685.52-15.3 684.32-15.3L684.32-15.3Q681.27-15.3 679.29-13.5 677.32-11.7 677.32-9L677.32-9Q677.32-7 678.42-5.78 679.52-4.55 681.42-4.55ZM706.12 0.65L706.12 0.65Q703.07 0.65 701.74-1.38 700.42-3.4 700.42-6.6L700.42-6.6Q700.42-7.75 700.54-8.85 700.67-9.95 700.82-11.05L700.82-11.05Q700.97-12.15 701.12-13.2 701.27-14.25 701.37-15.2L701.37-15.2Q700.32-14.9 699.27-14.9L699.27-14.9Q698.17-14.9 698.17-15.8L698.17-15.8Q698.17-16.75 699.02-18.13 699.87-19.5 701.14-20.85 702.42-22.2 703.69-23.13 704.97-24.05 705.87-24.05L705.87-24.05Q706.97-24.05 706.97-22.15L706.97-22.15Q706.97-21.65 706.89-21.13 706.82-20.6 706.72-20.05L706.72-20.05Q707.67-20.25 708.64-20.4 709.62-20.55 710.52-20.55L710.52-20.55Q711.67-20.55 712.29-20.15 712.92-19.75 712.92-18.6L712.92-18.6Q712.92-17.4 712.34-16.2 711.77-15 711.07-15L711.07-15Q710.92-15 710.57-15.05 710.22-15.1 709.72-15.2L709.72-15.2Q709.07-15.35 708.07-15.5 707.07-15.65 705.67-15.65L705.67-15.65Q705.32-14.1 705.04-12.48 704.77-10.85 704.77-9.55L704.77-9.55Q704.77-6.65 706.22-5.6 707.67-4.55 710.42-4.55L710.42-4.55Q711.27-4.55 711.62-4.28 711.97-4 711.97-3.3L711.97-3.3Q711.97-1.65 710.27-0.5 708.57 0.65 706.12 0.65ZM718.51 9.6L718.51 9.6Q717.56 9.6 717.06 9.13 716.56 8.65 716.61 7.4L716.61 7.4Q716.61 6.65 716.74 4.73 716.86 2.8 717.09 0.18 717.31-2.45 717.59-5.3 717.86-8.15 718.11-10.8 718.36-13.45 718.56-15.35L718.56-15.35Q718.06-15.3 717.61-15.28 717.16-15.25 716.71-15.15L716.71-15.15Q716.21-15.05 715.96-15.05L715.96-15.05Q715.36-15.05 715.16-15.78 714.96-16.5 714.96-17.15L714.96-17.15Q714.96-17.9 715.19-18.4 715.41-18.9 716.16-19.2L716.16-19.2Q716.61-19.4 717.34-19.55 718.06-19.7 718.86-19.8L718.86-19.8Q719.11-22.75 719.64-25.4 720.16-28.05 721.26-29.9L721.26-29.9Q722.41-31.8 724.39-32.9 726.36-34 728.41-34L728.41-34Q729.91-34 731.24-33.43 732.56-32.85 733.39-31.83 734.21-30.8 734.21-29.5L734.21-29.5Q734.21-28.55 733.74-27.95 733.26-27.35 732.66-27.35L732.66-27.35Q732.41-27.35 732.11-27.45 731.81-27.55 731.51-27.65L731.51-27.65Q730.96-27.9 730.14-28.08 729.31-28.25 728.36-28.25L728.36-28.25Q726.41-28.25 725.29-27.2 724.16-26.15 723.59-24.33 723.01-22.5 722.66-20.1L722.66-20.1Q723.71-20.2 724.91-20.3 726.11-20.4 726.86-20.4L726.86-20.4Q728.06-20.4 728.74-20.03 729.41-19.65 729.41-18.6L729.41-18.6Q729.41-17.95 729.19-17.07 728.96-16.2 728.51-15.53 728.06-14.85 727.46-14.85L727.46-14.85Q727.21-14.85 726.61-15L726.61-15Q725.96-15.1 724.91-15.25 723.86-15.4 722.26-15.45L722.26-15.45Q722.06-13.3 721.94-10.68 721.81-8.05 721.81-5.15L721.81-5.15Q721.81-2 722.01 0.3 722.21 2.6 722.41 4.05L722.41 4.05Q722.51 4.7 722.56 5.2 722.61 5.7 722.61 6L722.61 6Q722.61 7.45 721.91 8.22 721.21 9 720.26 9.3 719.31 9.6 718.51 9.6ZM738.76 0.65L738.76 0.65Q735.31 0.65 733.24-1.23 731.16-3.1 731.16-6.75L731.16-6.75Q731.16-8.45 731.64-10.05 732.11-11.65 732.91-13.05L732.91-13.05Q732.11-12.55 731.71-12.55L731.71-12.55Q731.11-12.55 730.89-13.23 730.66-13.9 730.66-14.55L730.66-14.55Q730.66-15.7 731.14-16.38 731.61-17.05 732.06-17.4L732.06-17.4Q733.11-18.3 735.36-19.38 737.61-20.45 740.76-20.45L740.76-20.45Q745.06-20.45 747.44-18.05 749.81-15.65 749.81-11.35L749.81-11.35Q749.81-8 748.41-5.28 747.01-2.55 744.54-0.95 742.06 0.65 738.76 0.65ZM740.31-4.45L740.31-4.45Q742.81-4.45 744.54-6.03 746.26-7.6 746.26-10.2L746.26-10.2Q746.26-12.9 744.51-14.05 742.76-15.2 740.46-15.2L740.46-15.2Q739.41-15.2 738.56-15 737.71-14.8 736.96-14.5L736.96-14.5Q736.26-13.5 735.71-12.25 735.16-11 735.16-9.5L735.16-9.5Q735.16-7 736.66-5.73 738.16-4.45 740.31-4.45ZM756.66 0.55L756.66 0.55Q755.86 0.55 755.38 0.28 754.91 0 755.06-0.65L755.06-0.65Q755.61-2.8 755.98-5.03 756.36-7.25 756.36-9.3L756.36-9.3Q756.36-11.95 756.03-13.18 755.71-14.4 755.16-14.88 754.61-15.35 753.81-15.6L753.81-15.6Q753.46-15.75 753.18-16 752.91-16.25 752.91-16.7L752.91-16.7Q752.91-17.4 753.46-18.25 754.01-19.1 755.01-19.73 756.01-20.35 757.31-20.35L757.31-20.35Q759.01-20.35 759.68-19.18 760.36-18 760.36-16.1L760.36-16.1Q761.26-18.1 762.58-19.28 763.91-20.45 765.91-20.45L765.91-20.45Q767.26-20.45 768.16-19.85 769.06-19.25 769.06-17.9L769.06-17.9Q769.06-16.55 768.18-15.38 767.31-14.2 766.41-14.2L766.41-14.2Q766.26-14.2 766.06-14.25 765.86-14.3 765.71-14.5L765.71-14.5Q765.06-15.3 764.11-15.3L764.11-15.3Q762.66-15.3 761.56-13.4 760.46-11.5 760.36-8.15L760.36-8.15Q760.41-6.9 760.43-5.6 760.46-4.3 760.46-3.7L760.46-3.7Q760.46-1.85 759.43-0.65 758.41 0.55 756.66 0.55ZM773.91 0.55L773.91 0.55Q772.11 0.55 772.31-0.65L772.31-0.65Q772.86-2.8 773.23-5.03 773.61-7.25 773.61-9.3L773.61-9.3Q773.61-11.95 773.28-13.18 772.96-14.4 772.41-14.88 771.86-15.35 771.06-15.6L771.06-15.6Q770.71-15.75 770.43-16 770.16-16.25 770.16-16.7L770.16-16.7Q770.16-17.4 770.71-18.25 771.26-19.1 772.28-19.73 773.31-20.35 774.61-20.35L774.61-20.35Q776.31-20.35 776.96-19.18 777.61-18 777.61-16.1L777.61-16.1Q777.61-14.85 777.36-13.3 777.11-11.75 776.86-10.5L776.86-10.5 776.96-10.45Q777.76-13.1 778.93-15.35 780.11-17.6 781.78-19 783.46-20.4 785.66-20.4L785.66-20.4Q787.91-20.4 789.21-18.88 790.51-17.35 790.51-14.4L790.51-14.4 790.51-13.3Q791.96-16.35 794.03-18.4 796.11-20.45 799.06-20.45L799.06-20.45Q801.46-20.45 802.81-18.85 804.16-17.25 804.16-14.85L804.16-14.85Q804.16-13.9 803.96-13.03 803.76-12.15 803.51-11.3L803.51-11.3Q803.31-10.5 803.11-9.65 802.91-8.8 802.91-7.95L802.91-7.95Q802.91-4.95 805.46-4.05L805.46-4.05Q805.81-3.9 806.01-3.73 806.21-3.55 806.21-3.1L806.21-3.1Q806.21-2.65 805.93-1.8 805.66-0.95 804.86-0.23 804.06 0.5 802.56 0.5L802.56 0.5Q800.61 0.5 799.56-0.93 798.51-2.35 798.51-4.55L798.51-4.55Q798.51-5.65 798.71-6.85 798.91-8.05 799.21-9.15L799.21-9.15Q799.46-10.15 799.63-11.05 799.81-11.95 799.81-12.6L799.81-12.6Q799.81-13.8 799.23-14.35 798.66-14.9 797.71-14.9L797.71-14.9Q796.11-14.9 794.83-13.9 793.56-12.9 792.58-11.3 791.61-9.7 790.91-7.8L790.91-7.8Q790.96-7.35 790.98-6.63 791.01-5.9 791.01-5.35L791.01-5.35Q791.01-4.4 790.88-3.35 790.76-2.3 790.41-1.6L790.41-1.6Q790.01-0.65 789.23-0.05 788.46 0.55 787.16 0.55L787.16 0.55Q786.61 0.55 786.11 0.33 785.61 0.1 785.61-0.4L785.61-0.4Q785.61-0.6 785.91-2.18 786.21-3.75 786.51-6.05 786.81-8.35 786.81-10.55L786.81-10.55Q786.81-12.95 786.31-13.88 785.81-14.8 784.81-14.8L784.81-14.8Q783.56-14.8 782.43-13.75 781.31-12.7 780.38-11.05 779.46-9.4 778.78-7.6 778.11-5.8 777.71-4.25L777.71-4.25 777.71-3.7Q777.71-1.85 776.68-0.65 775.66 0.55 773.91 0.55ZM813.55 0.45L813.55 0.45Q812.15 0.45 811.28-0.45 810.4-1.35 810.4-2.75L810.4-2.75Q810.4-4.2 811.35-5.15 812.3-6.1 813.8-6.1L813.8-6.1Q815.2-6.1 816.05-5.25 816.9-4.4 816.9-3L816.9-3Q816.9-1.5 815.95-0.53 815 0.45 813.55 0.45Z" opacity="1" transform="matrix(1,0,0,1,0,0)" fill="#ffffff" class="slogan-text-1" data-fill-palette-color="secondary" id="text-1"></path></svg></g></svg></g></svg></g></svg></g><g></g></svg></g><defs></defs></svg><rect width="395.52" height="117.86068132838051" fill="none" stroke="none" visibility="hidden"></rect></g></svg></g></svg>